<svg xmlns="http://www.w3.org/2000/svg" viewBox="0 0 560 350" role="img" aria-label="App Store and iTunes">
  <defs>
    <linearGradient id="bg" x1="0" x2="1" y1="0" y2="1">
      <stop offset="0" stop-color="#1e73ff"/>
      <stop offset="0.48" stop-color="#18b9f0"/>
      <stop offset="1" stop-color="#12d4e4"/>
    </linearGradient>
    <pattern id="waves" width="56" height="28" patternUnits="userSpaceOnUse">
      <path d="M0 14c14-10 28-10 42 0s28 10 42 0" fill="none" stroke="#ffffff" stroke-opacity="0.18" stroke-width="2"/>
    </pattern>
  </defs>
  <rect width="560" height="350" rx="14" fill="url(#bg)"/>
  <rect width="560" height="350" rx="14" fill="url(#waves)"/>
  <path fill="#ffffff" d="M304 94c12-15 20-35 18-56-18 1-40 12-53 27-12 14-21 34-19 54 20 2 41-10 54-25Zm60 154c-11 25-24 49-44 50-19 1-25-16-47-16s-29 15-47 16c-19 1-34-27-45-52-25-54-28-118-12-150 12-23 34-37 57-37 18 0 34 16 46 16 11 0 32-19 55-16 10 1 38 4 56 31-1 1-33 19-33 57 0 45 39 60 40 61-1 2-6 20-22 40Z"/>
  <text x="280" y="308" text-anchor="middle" fill="#ffffff" font-family="Arial, Helvetica, sans-serif" font-size="44" font-weight="700">App Store &amp; iTunes</text>
</svg>
