<svg xmlns="http://www.w3.org/2000/svg" viewBox="0 0 64 64" role="img" aria-label="Steam">
  <circle cx="32" cy="32" r="32" fill="#00558c"/>
  <path fill="#fff" d="M47.2 16.2a10.7 10.7 0 0 0-10.6 9.5l-8.7 6.3a8.1 8.1 0 0 0-6.1-.7l-9.1-5.7-3 4.8 9 5.7a8 8 0 0 0 12.5 8.4 8 8 0 0 0 2.5-7.3l6.2-4.5a10.7 10.7 0 1 0 7.3-16.5Zm-21.6 27a4 4 0 0 1-5-2.4 4 4 0 0 1 .1-3.1l4.1 2.6a3 3 0 0 0 3.3-5l-4-2.5a4 4 0 1 1 1.5 10.4Zm21.6-9.9a6.4 6.4 0 1 1 0-12.8 6.4 6.4 0 0 1 0 12.8Zm0-3.1a3.3 3.3 0 1 0 0-6.6 3.3 3.3 0 0 0 0 6.6Z"/>
</svg>
