<svg xmlns="http://www.w3.org/2000/svg" viewBox="0 0 80 80"><rect width="80" height="80" rx="18" fill="#19ce63"/><path fill="#fff" d="M40.4 14.5a25.1 25.1 0 0 0-21.8 37.6L15 65.5l13.7-3.6a25 25 0 1 0 11.7-47.4Zm0 45.7c-4.1 0-8-1.2-11.4-3.3l-.8-.5-8.1 2.1 2.2-7.9-.5-.8a20.6 20.6 0 1 1 18.6 10.4Zm11.3-15.4c-.6-.3-3.7-1.8-4.3-2-.6-.2-1-.3-1.4.3-.4.6-1.6 2-2 2.4-.4.4-.7.5-1.3.2-3.6-1.8-6-3.2-8.4-7.2-.6-1.1.6-1 1.8-3.3.2-.4.1-.8 0-1.1-.2-.3-1.4-3.4-1.9-4.6-.5-1.2-1-1-1.4-1h-1.2c-.4 0-1.1.2-1.7.8-.6.6-2.2 2.1-2.2 5.2s2.3 6 2.6 6.4c.3.4 4.4 6.7 10.6 9.4 3.9 1.7 5.4 1.8 7.3 1.5 1.1-.2 3.7-1.5 4.2-3 .5-1.5.5-2.8.4-3-.2-.4-.6-.6-1.2-.9Z"/></svg>
