<svg xmlns="http://www.w3.org/2000/svg" viewBox="0 0 80 80"><rect width="80" height="80" rx="18" fill="#111827"/><path fill="#fff" d="M47.1 20.4c1.9-2.4 3.2-5.7 2.8-9-2.7.1-6 1.8-7.9 4.1-1.8 2-3.3 5.4-2.9 8.6 3 .2 6-1.5 8-3.7Zm9.4 22.2c-.1-9.2 7.5-13.6 7.9-13.9-4.3-6.3-10.9-7.1-13.2-7.2-5.6-.6-11 3.3-13.8 3.3-2.9 0-7.3-3.2-12-3.1-6.2.1-11.9 3.6-15 9.1-6.4 11.1-1.6 27.5 4.6 36.5 3 4.4 6.7 9.4 11.5 9.2 4.6-.2 6.4-3 12-3 5.6 0 7.2 3 12.1 2.9 5-.1 8.2-4.5 11.2-8.9 3.5-5.1 4.9-10 5-10.3-.1 0-9.8-3.8-9.9-14.6Z"/></svg>
