<svg xmlns="http://www.w3.org/2000/svg" viewBox="0 0 80 80"><rect width="80" height="80" rx="18" fill="#050505"/><path fill="#25f4ee" d="M46.7 16.5h7.2c.7 5.4 3.8 9 9.1 10.5v7.2c-3.2-.1-6.3-1.1-9.1-2.9v18.1c0 9.1-7.4 16.5-16.5 16.5S20.9 58.5 20.9 49.4s7.4-16.5 16.5-16.5c1.2 0 2.4.1 3.5.4v7.8a8.5 8.5 0 1 0 5.8 8.1Z"/><path fill="#fe2c55" d="M50.5 16.5h4.1c.8 5.2 3.9 8.7 9 10.1v4.5c-3.9-.3-7.4-1.9-10.1-4.3v19.1c0 9.1-7.4 16.5-16.5 16.5-5.3 0-10-2.5-13-6.4a16.5 16.5 0 0 0 29.5-10.1V27.7c-1.8-2.7-2.8-6.5-3-11.2Z"/></svg>
